<svg width="1440" height="4855" viewBox="0 0 1440 4855" fill="none" xmlns="http://www.w3.org/2000/svg">
<g clip-path="url(#clip0_223_129)">
<rect width="1440" height="4855" fill="black"/>
<g opacity="0.71">
<g filter="url(#filter0_f_223_129)">
<path d="M660.138 1652.5C578.589 1659.34 498.212 1636.95 431.038 1606.32C363.065 1575.77 307.496 1537.05 274.275 1488.89C241.053 1440.72 229.739 1382.77 212.148 1322.83C194.118 1262.56 170.089 1199.15 170.445 1126.48C170.36 1053.47 195.378 970.392 256.438 964.345C316.699 958.373 412.645 1029.84 481.824 1063.97C551.362 1097.69 594.133 1094.09 645.756 1101.08C697.737 1107.68 757.69 1124.23 790.047 1161.05C822.763 1197.46 827.085 1254.21 841.986 1326.21C856.806 1397.47 881.846 1484.38 853.226 1546.04C824.246 1608.11 741.606 1644.92 660.138 1652.5Z" fill="#04283B"/>
</g>
<g filter="url(#filter1_f_223_129)">
<path d="M1109.14 1819.69C1070.97 1757.6 1092.44 1650.83 1045.33 1569.13C998.213 1487.42 882.51 1430.23 869.986 1374.12C858.058 1318.56 948.711 1263.55 1028.63 1227.05C1108.55 1190.01 1177.73 1171.49 1245.72 1156.79C1313.71 1142.08 1380.51 1132.27 1458.64 1132.27C1537.36 1132.27 1626.82 1142.08 1673.34 1188.38C1719.86 1234.13 1723.44 1316.39 1735.96 1397C1748.49 1477.62 1769.36 1556.6 1735.96 1608.35C1702.57 1660.64 1614.3 1684.61 1539.15 1731.45C1464.6 1778.3 1403.17 1847.47 1324.45 1873.62C1245.12 1899.22 1147.31 1881.79 1109.14 1819.69Z" fill="#D04A02"/>
</g>
</g>
<g opacity="0.29">
<g filter="url(#filter2_f_223_129)">
<path d="M944.412 2884.04C1026.1 2888.97 1102.43 2922.66 1164.52 2962.61C1227.4 3002.6 1276.84 3048.89 1302.81 3101.32C1328.78 3153.76 1331.66 3212.73 1340.47 3274.58C1349.66 3336.81 1364.35 3403.01 1353.57 3474.88C1343.17 3547.14 1306.5 3625.77 1245.2 3623C1184.71 3620.26 1100.01 3535.77 1036.44 3492.07C972.46 3448.71 929.614 3446.15 879.529 3431.81C829.032 3417.83 772.074 3392.85 745.334 3351.77C718.181 3311.04 722.047 3254.25 717.63 3180.86C713.189 3108.21 700.877 3018.61 738.048 2961.69C775.632 2904.43 862.7 2879.85 944.412 2884.04Z" fill="#04283B"/>
</g>
<g filter="url(#filter3_f_223_129)">
<path d="M524.04 2654.15C552.906 2721.08 516.339 2823.66 551.245 2911.28C586.15 2998.9 692.449 3072.11 696.794 3129.43C700.627 3186.12 603.018 3227.56 518.691 3252.21C434.285 3277.4 363.16 3285.81 293.764 3290.61C224.367 3295.41 156.854 3295.53 79.5334 3284.32C1.6226 3273.02 -85.5056 3250.48 -124.901 3197.99C-164.374 3146.03 -156.114 3064.12 -156.942 2982.54C-157.77 2900.96 -167.096 2819.8 -126.619 2773.38C-86.0628 2726.42 4.73055 2715.36 85.8212 2679.79C166.322 2644.12 237.041 2584.47 318.703 2569.89C400.878 2555.94 495.175 2587.22 524.04 2654.15Z" fill="#D04A02"/>
</g>
</g>
<g opacity="0.29">
<g filter="url(#filter4_f_223_129)">
<path d="M824.61 4434.94C899.488 4401.91 982.777 4396.92 1056.26 4404.01C1130.48 4410.77 1195.62 4429.28 1242.72 4464.01C1289.81 4498.73 1319.38 4549.84 1355.52 4600.79C1392.2 4651.91 1435.56 4704.03 1458.88 4772.87C1482.73 4841.86 1486.12 4928.57 1430.36 4954.16C1375.33 4979.43 1261.34 4943.09 1184.82 4933.35C1108.09 4924.1 1068.82 4941.44 1017.73 4951.62C966.437 4962.31 904.363 4966.18 861.783 4941.91C818.994 4918.13 796.43 4865.87 758.901 4802.65C721.687 4740.09 669.716 4666.07 676.702 4598.45C683.896 4530.34 750.048 4468.62 824.61 4434.94Z" fill="#04283B"/>
</g>
<g filter="url(#filter5_f_223_129)">
<path d="M345.634 4423.03C401.941 4469.32 416.399 4577.26 487.549 4639.17C558.7 4701.09 686.719 4717.49 716.827 4766.46C746.194 4815.11 678.391 4896.65 614.709 4957.17C551.205 5018.21 491.821 5058.25 432.323 5094.29C372.825 5130.33 312.86 5161.35 238.987 5186.79C164.551 5212.42 76.7725 5232.27 17.7135 5203.64C-41.1682 5175.52 -71.3302 5098.92 -109.419 5026.77C-147.508 4954.63 -192.959 4886.74 -178.227 4826.94C-163.673 4766.62 -88.0175 4715.23 -32.2162 4646.47C23.0213 4577.9 58.5817 4492.49 124.505 4442.14C191.17 4392.11 289.327 4376.75 345.634 4423.03Z" fill="#D04A02"/>
</g>
</g>
<g opacity="0.1" filter="url(#filter6_f_223_129)">
<path d="M1108.53 683.447C1054.77 672.002 1039.81 619.108 1056.44 576.731C1073.06 534.354 1121.28 502.494 1113.52 458.879C1105.76 415.574 1041.47 360.824 1058.65 340.409C1076.39 319.993 1175.04 333.913 1245.97 345.667C1316.91 357.731 1360.14 367.629 1429.97 362.061C1500.35 356.803 1597.89 336.078 1659.96 348.142C1722.03 360.515 1748.63 405.366 1715.93 440.01C1683.23 474.655 1591.24 499.091 1545.24 526.93C1498.69 554.46 1498.69 585.392 1473.19 604.261C1447.7 622.82 1396.71 629.007 1325.78 646.947C1254.29 665.197 1162.29 694.892 1108.53 683.447Z" fill="#D04A02"/>
</g>
</g>
<defs>
<filter id="filter0_f_223_129" x="-229.56" y="563.993" width="1495.88" height="1489.74" filterUnits="userSpaceOnUse" color-interpolation-filters="sRGB">
<feFlood flood-opacity="0" result="BackgroundImageFix"/>
<feBlend mode="normal" in="SourceGraphic" in2="BackgroundImageFix" result="shape"/>
<feGaussianBlur stdDeviation="200" result="effect1_foregroundBlur_223_129"/>
</filter>
<filter id="filter1_f_223_129" x="468.922" y="732.274" width="1685.08" height="1552.73" filterUnits="userSpaceOnUse" color-interpolation-filters="sRGB">
<feFlood flood-opacity="0" result="BackgroundImageFix"/>
<feBlend mode="normal" in="SourceGraphic" in2="BackgroundImageFix" result="shape"/>
<feGaussianBlur stdDeviation="200" result="effect1_foregroundBlur_223_129"/>
</filter>
<filter id="filter2_f_223_129" x="312.079" y="2483.59" width="1445.28" height="1539.48" filterUnits="userSpaceOnUse" color-interpolation-filters="sRGB">
<feFlood flood-opacity="0" result="BackgroundImageFix"/>
<feBlend mode="normal" in="SourceGraphic" in2="BackgroundImageFix" result="shape"/>
<feGaussianBlur stdDeviation="200" result="effect1_foregroundBlur_223_129"/>
</filter>
<filter id="filter3_f_223_129" x="-558.443" y="2166.63" width="1655.35" height="1527.06" filterUnits="userSpaceOnUse" color-interpolation-filters="sRGB">
<feFlood flood-opacity="0" result="BackgroundImageFix"/>
<feBlend mode="normal" in="SourceGraphic" in2="BackgroundImageFix" result="shape"/>
<feGaussianBlur stdDeviation="200" result="effect1_foregroundBlur_223_129"/>
</filter>
<filter id="filter4_f_223_129" x="276.064" y="4001.21" width="1599.17" height="1361.73" filterUnits="userSpaceOnUse" color-interpolation-filters="sRGB">
<feFlood flood-opacity="0" result="BackgroundImageFix"/>
<feBlend mode="normal" in="SourceGraphic" in2="BackgroundImageFix" result="shape"/>
<feGaussianBlur stdDeviation="200" result="effect1_foregroundBlur_223_129"/>
</filter>
<filter id="filter5_f_223_129" x="-581.07" y="3995.33" width="1704.95" height="1622.38" filterUnits="userSpaceOnUse" color-interpolation-filters="sRGB">
<feFlood flood-opacity="0" result="BackgroundImageFix"/>
<feBlend mode="normal" in="SourceGraphic" in2="BackgroundImageFix" result="shape"/>
<feGaussianBlur stdDeviation="200" result="effect1_foregroundBlur_223_129"/>
</filter>
<filter id="filter6_f_223_129" x="650" y="-70" width="1480" height="1156" filterUnits="userSpaceOnUse" color-interpolation-filters="sRGB">
<feFlood flood-opacity="0" result="BackgroundImageFix"/>
<feBlend mode="normal" in="SourceGraphic" in2="BackgroundImageFix" result="shape"/>
<feGaussianBlur stdDeviation="200" result="effect1_foregroundBlur_223_129"/>
</filter>
<clipPath id="clip0_223_129">
<rect width="1440" height="4855" fill="white"/>
</clipPath>
</defs>
</svg>
