<?xml version="1.0" encoding="utf-8"?>
<!-- Generator: Adobe Illustrator 28.3.0, SVG Export Plug-In . SVG Version: 6.00 Build 0)  -->
<svg version="1.1" id="Layer_1" xmlns="http://www.w3.org/2000/svg" xmlns:xlink="http://www.w3.org/1999/xlink" x="0px" y="0px"
	 viewBox="0 0 1482 703.84" style="enable-background:new 0 0 1482 703.84;" xml:space="preserve">
<style type="text/css">
	.st0{fill:#53B7B1;}
	.st1{fill:#297B93;}
	.st2{fill:#FFFFFF;}
</style>
<g>
	<path class="st0" d="M63.22,280.24c0-15.26-0.01-30.51-0.04-45.78c-20.97-0.04-41.94-0.13-62.91,0.04
		c0.04,20.21,0.04,40.43,0.04,60.69h46.81C56.01,295.18,63.22,288.49,63.22,280.24z"/>
	<g>
		<path class="st1" d="M1324.88,73.15c0-24.35-0.01-48.68-0.06-73.06c-33.46-0.07-66.92-0.2-100.38,0.07
			c0.06,32.26,0.06,64.51,0.06,96.84l74.69,0C1313.37,97,1324.88,86.32,1324.88,73.15z"/>
		<path class="st0" d="M1110.45,199.34h112.88v349.2h102.5V141.58c0-15.32-14.84-27.73-33.16-27.73h-166.41
			c-8.74,0-15.82,6.57-15.82,14.68V199.34z"/>
		<path class="st1" d="M1418.74,643.8c40.85-38.09,63.33-88.68,63.26-142.36l-0.69-387.63l-71.11,0.11
			c-17.7,0.03-32.03,13.37-32,29.79l0.63,358.02c0.07,58.11-50.64,106.08-113.03,106.93l-42.01,1.1v94.07l40.87-0.52
			C1322.37,702.54,1378.07,681.72,1418.74,643.8z"/>
	</g>
	<g>
		<g>
			<path class="st2" d="M0,341.82h59.66V550.4H0V341.82z"/>
			<path class="st2" d="M104.4,393.04H212.2c8.84,0,16,7.16,16,16v28.74H120.4c-8.84,0-16-7.16-16-16V393.04z"/>
			<path class="st2" d="M514.06,445.47V296.09h59.66v147.87c0,35.09,25.85,51.63,54.69,51.63s54.69-16.54,54.69-51.63V296.09h59.66
				v149.37c0,43.61-32.32,105.77-114.35,105.77S514.06,489.08,514.06,445.47z"/>
			<path class="st2" d="M963.99,471.85c0,51.35-40.27,79.04-96.95,79.04c-52.7,0-86.51-24.17-101.92-38.26l31.82-47.32
				c20.88,20.14,47.23,30.21,71.59,30.21c20.38,0,35.8-7.05,35.8-21.65c0-43.3-135.23-16.61-135.23-108.75c0-46.32,34.3-73,90.48-73
				c49.22,0,81.54,20.14,103.41,38.26l-31.82,46.82c-26.35-22.15-52.2-29.7-72.59-29.7c-19.39,0-29.83,6.55-29.83,16.61
				C828.76,400.86,963.99,377.7,963.99,471.85z"/>
			<path class="st2" d="M1109.65,291.62v54.69c-39.77,0-63.64,19.39-63.64,59.16v146.21h-59.66V412.47
				C986.36,329.9,1034.09,291.62,1109.65,291.62z"/>
		</g>
		<g>
			<path class="st2" d="M477.94,234.07v195.01c0,80.93-39.75,121.4-119.24,121.4c-20.95,0-40.97-2.8-60.05-8.39
				c-19.09-5.6-34.8-13.71-47.14-24.32l24.11-40.46c9.75,8.32,21.67,14.92,35.73,19.8c14.06,4.88,28.84,7.32,44.34,7.32
				c23.53,0,40.82-5.67,51.87-17c11.04-11.34,16.57-28.77,16.57-52.3v-10.76c-8.61,9.47-19.09,16.72-31.43,21.74
				c-12.34,5.03-25.69,7.53-40.04,7.53c-30.71,0-54.89-8.46-72.54-25.4c-17.65-16.93-26.48-42.33-26.48-76.2V234.07h53.81v111.06
				c0,20.38,4.66,35.66,13.99,45.85c9.32,10.19,22.6,15.28,39.82,15.28c19.22,0,34.51-5.88,45.85-17.65
				c11.33-11.76,17-28.84,17-51.23V234.07H477.94z"/>
		</g>
	</g>
</g>
<g>
</g>
<g>
</g>
<g>
</g>
<g>
</g>
<g>
</g>
<g>
</g>
<g>
</g>
<g>
</g>
<g>
</g>
<g>
</g>
<g>
</g>
</svg>
