<svg width="251" height="68" viewBox="0 0 251 68" fill="none" xmlns="http://www.w3.org/2000/svg">
<g clip-path="url(#clip0_260_366)">
<path fill-rule="evenodd" clip-rule="evenodd" d="M73.8296 50.4357V19.527H77.8003L96.6757 44.4024V19.527H100.449V50.4357H96.4782L77.6029 25.3145V50.4357H73.8296Z" fill="white"/>
<path fill-rule="evenodd" clip-rule="evenodd" d="M131.188 49.2106C128.687 50.1415 125.993 50.6333 123.15 50.6333C111.971 50.6333 106.385 45.285 106.385 34.5401C106.385 24.3835 111.778 19.2811 122.562 19.2811C125.651 19.2811 128.543 19.7246 131.193 20.5589V23.9927C128.547 22.9608 125.8 22.4734 123.005 22.4734C114.572 22.4734 110.356 26.4956 110.356 34.4435C110.356 43.028 114.524 47.2961 122.808 47.2961C124.133 47.2961 125.603 47.0985 127.222 46.756V36.4019H131.193V49.2062L131.188 49.2106Z" fill="white"/>
<path fill-rule="evenodd" clip-rule="evenodd" d="M137.559 38.514V19.527H141.53V38.514C141.53 44.4507 144.47 47.4454 150.402 47.4454C156.334 47.4454 159.273 44.4507 159.273 38.514V19.527H163.244V38.514C163.244 46.6111 158.979 50.6816 150.402 50.6816C141.824 50.6816 137.559 46.6111 137.559 38.514Z" fill="white"/>
<path fill-rule="evenodd" clip-rule="evenodd" d="M174.327 19.527V47.1995H190.504V50.4357H170.356V19.527H174.327Z" fill="white"/>
<path fill-rule="evenodd" clip-rule="evenodd" d="M196.243 50.4357H192.075L207.418 15.4521L222.761 50.4357H218.348L214.377 40.7227H204.18L205.259 37.4865H213.056L207.273 23.5054L196.243 50.4401V50.4357Z" fill="white"/>
<path fill-rule="evenodd" clip-rule="evenodd" d="M227.031 50.4357V19.527H240.22C246.104 19.527 249.043 21.9816 249.043 26.9348C249.043 30.957 246.152 33.9517 240.413 35.8662L251 50.4357H245.753L235.946 36.5512V33.9517C241.83 33.0208 244.818 30.7638 244.818 27.1324C244.818 24.287 243.199 22.8642 239.917 22.8642H231.094V50.4357H227.026H227.031Z" fill="white"/>
<path fill-rule="evenodd" clip-rule="evenodd" d="M0 11.285L31.6213 0L64.0761 11.0874L58.8286 52.9387L31.6213 68L4.85266 53.1363L0 11.285Z" fill="white"/>
<path fill-rule="evenodd" clip-rule="evenodd" d="M64.076 11.0874L31.6211 0V68L58.8284 52.9387L64.076 11.0874Z" fill="white"/>
<path fill-rule="evenodd" clip-rule="evenodd" d="M31.6694 7.94781L11.9604 51.8101L19.314 51.6608L23.2848 41.7502H40.8833L45.1963 51.7575L52.2077 51.9067L31.6694 7.94781ZM31.7177 22.03L38.3868 35.9628H25.8866L31.7221 22.03H31.7177Z" fill="#B52E31"/>
</g>
<defs>
<clipPath id="clip0_260_366">
<rect width="251" height="68" fill="white"/>
</clipPath>
</defs>
</svg>
