<svg width="79" height="96" viewBox="0 0 79 96" fill="none" xmlns="http://www.w3.org/2000/svg">
<path d="M20.7855 95.9164C20.6166 95.9164 20.4367 95.8728 20.3119 95.7056L14.9402 88.7138V95.8474H13.7139V87.0639C13.7139 86.7151 14.0076 86.4352 14.3417 86.4352C14.5363 86.4352 14.7052 86.4898 14.8301 86.6605L20.1907 93.6415V86.537H21.4171V95.3059C21.4171 95.6693 21.1233 95.92 20.7892 95.92" fill="white"/>
<path d="M30.9193 96C29.693 96 28.4152 95.7492 27.2183 95.3022L27.512 94.2956C28.6098 94.6445 29.8105 94.8989 30.923 94.8989C32.4688 94.8989 33.2765 94.3537 33.2765 93.5833C33.2765 92.8856 32.6487 92.5331 30.4934 91.5265C28.3345 90.5199 27.4863 89.8766 27.4863 88.6156C27.4863 87.0348 28.7126 86.3916 31.0221 86.3916C31.9841 86.3916 33.4565 86.5878 34.3083 86.8386L34.1137 87.8743C33.1811 87.649 32.0135 87.4963 31.0515 87.4963C29.4249 87.4963 28.7567 87.8052 28.7567 88.572C28.7567 89.3388 29.245 89.6477 31.5252 90.6979C33.9338 91.8027 34.5469 92.3623 34.5469 93.5107C34.5469 95.175 32.9608 96 30.9267 96" fill="white"/>
<path d="M40.3447 86.5333H41.6115V95.8473H40.3447V86.5333Z" fill="white"/>
<path d="M52.3838 91.621H49.2372V94.7826H52.3838C53.4559 94.7826 54.1095 94.1103 54.1095 93.1727C54.1095 92.2933 53.4266 91.621 52.3838 91.621ZM51.7706 87.5945H49.2372V90.5744H51.7706C52.7877 90.5744 53.5257 89.9311 53.5257 89.0372C53.5257 88.1432 52.8868 87.5981 51.7706 87.5981M52.3985 95.8473H48.613C48.2495 95.8473 47.9741 95.5675 47.9741 95.2186V87.162C47.9741 86.8277 48.2532 86.5333 48.613 86.5333H51.7449C53.6652 86.5333 54.8071 87.4709 54.8071 88.9391C54.8071 89.7349 54.3335 90.4762 53.6102 90.9123C54.6823 91.2358 55.4056 92.1152 55.4056 93.1763C55.4056 94.659 54.1683 95.8473 52.3985 95.8473Z" fill="white"/>
<path d="M61.486 95.8473C61.1372 95.8473 60.8618 95.553 60.8618 95.2186V86.5333H62.1286V94.7135H67.1661V95.8473H61.486Z" fill="white"/>
<path d="M75.8018 96.0001C73.2133 96.0001 71.6528 95.0479 71.6528 93.1328C71.6528 92.2243 72.1669 91.3558 73.1692 90.9524C72.3615 90.4473 71.9429 89.735 71.9429 88.9537C71.9429 87.2202 73.2941 86.3953 75.8275 86.3953C76.6757 86.3953 77.8727 86.4934 78.875 86.7188L78.7355 87.7544C77.6781 87.5873 76.6904 87.4892 75.7284 87.4892C74.0872 87.4892 73.2096 87.9361 73.2096 89.0118C73.2096 89.8658 74.0174 90.5381 75.0895 90.5381H77.2595C77.5642 90.5381 77.8029 90.7743 77.8029 91.0687C77.8029 91.363 77.5679 91.6138 77.2595 91.6138H74.9206C73.6943 91.6138 72.9159 92.2134 72.9159 93.1401C72.9159 94.4956 74.1826 94.9026 75.7688 94.9026C76.6316 94.9026 77.7992 94.7899 78.7465 94.5682L78.9264 95.5894C78.0232 95.8402 76.8373 96.0073 75.7945 96.0073" fill="white"/>
<path d="M4.28853 88.2777L6.50623 93.7796L3.15398 91.1267L4.28486 88.2777H4.28853ZM8.22825 95.0478L4.81725 86.795C4.71812 86.5588 4.52352 86.4316 4.28853 86.4316C4.05354 86.4316 3.84426 86.5588 3.74512 86.795L0 95.8473H1.28142L2.76478 92.1152L7.18916 95.7056C7.3654 95.851 7.49391 95.9164 7.66281 95.9164C7.99693 95.9164 8.29067 95.6656 8.29067 95.3022C8.29067 95.2441 8.26864 95.1496 8.23192 95.0478H8.22825Z" fill="white"/>
<path d="M78.9998 39.0221C78.9998 60.5755 61.3501 78.0443 39.5733 78.0443C17.7965 78.0443 0.150391 60.5719 0.150391 39.0221C0.150391 17.4724 17.8002 0 39.5733 0C61.3464 0 78.9998 17.4724 78.9998 39.0221Z" fill="white"/>
<path d="M40.238 23.8356L50.4416 48.7577L35.0315 36.7436L40.2416 23.8356H40.238ZM58.3651 54.5031L42.6723 17.1235C42.2243 16.0442 41.3284 15.4737 40.2416 15.4737C39.1548 15.4737 38.1928 16.0442 37.7449 17.1235L20.521 58.1262H26.4141L33.2324 41.2207L53.5809 57.4903C54.3996 58.1444 54.9908 58.4424 55.7582 58.4424C57.2966 58.4424 58.6404 57.3013 58.6404 55.6551C58.6404 55.3862 58.545 54.961 58.3724 54.5031H58.3651Z" fill="black"/>
</svg>
