<svg width="137" height="82" viewBox="0 0 137 82" fill="none" xmlns="http://www.w3.org/2000/svg">
<g clip-path="url(#clip0_260_462)">
<path d="M38.6082 29.7791C38.6082 31.4681 38.7902 32.8356 39.1075 33.839C39.4714 34.8424 39.9281 35.9387 40.5667 37.1241C40.7951 37.4883 40.8841 37.8524 40.8841 38.174C40.8841 38.6311 40.6093 39.0843 40.0171 39.5415L37.1452 41.4552C36.7349 41.7302 36.3247 41.8658 35.9608 41.8658C35.5041 41.8658 35.0513 41.6373 34.5945 41.2266C33.9559 40.5409 33.4102 39.8126 32.9535 39.0843C32.4967 38.3095 32.0439 37.4418 31.5407 36.3919C27.9876 40.5874 23.5211 42.6871 18.1449 42.6871C14.317 42.6871 11.2632 41.5908 9.0338 39.402C6.80052 37.2132 5.6626 34.2961 5.6626 30.6469C5.6626 26.769 7.02888 23.6234 9.8079 21.2525C12.5869 18.8817 16.2794 17.6962 20.9704 17.6962C22.5186 17.6962 24.1132 17.8318 25.8008 18.0604C27.4883 18.2889 29.2184 18.6531 31.0414 19.0637V15.736C31.0414 12.2688 30.3138 9.85147 28.901 8.43747C27.4419 7.02348 24.9841 6.33779 21.4736 6.33779C19.8789 6.33779 18.2378 6.51987 16.5542 6.93051C14.8705 7.34114 13.2294 7.84088 11.6348 8.48009C10.9071 8.79775 10.3575 8.97983 10.0401 9.0728C9.72275 9.16578 9.49439 9.20839 9.31247 9.20839C8.67384 9.20839 8.35646 8.75126 8.35646 7.7944V5.55913C8.35646 4.83082 8.44935 4.28072 8.67384 3.96306C8.89833 3.64539 9.31247 3.32385 9.9511 3.00619C11.5457 2.18491 13.4578 1.50309 15.691 0.952993C17.9205 0.364152 20.2892 0.0929749 22.7973 0.0929749C28.2198 0.0929749 32.1832 1.32489 34.7339 3.78873C37.2381 6.25256 38.5154 9.99093 38.5154 15.0077V29.783H38.6082V29.7791ZM20.1073 36.7135C21.609 36.7135 23.1611 36.4384 24.8022 35.8922C26.4433 35.346 27.9025 34.3426 29.1294 32.9751C29.8571 32.1073 30.4067 31.1505 30.6776 30.058C30.9524 28.9617 31.1343 27.6407 31.1343 26.0911V24.1774C29.8145 23.8597 28.4018 23.5846 26.9426 23.4026C25.4834 23.2205 24.0707 23.1275 22.6579 23.1275C19.6041 23.1275 17.3708 23.7202 15.8691 24.9521C14.3673 26.1841 13.6358 27.9157 13.6358 30.1975C13.6358 32.3398 14.1816 33.9358 15.3234 35.0322C16.4187 36.1711 18.0133 36.7212 20.1073 36.7212V36.7135ZM56.6951 41.6373C55.8745 41.6373 55.3288 41.5017 54.965 41.1801C54.6011 40.9051 54.2799 40.2698 54.0089 39.402L43.2993 4.14901C43.0245 3.23863 42.889 2.64591 42.889 2.32437C42.889 1.59607 43.2528 1.18543 43.9844 1.18543H48.4509C49.3179 1.18543 49.9101 1.32102 50.2275 1.64256C50.5913 1.91761 50.8661 2.55294 51.137 3.4207L58.7929 33.6104L65.8991 3.4207C66.1275 2.51032 66.3984 1.91761 66.7661 1.64256C67.1338 1.36751 67.7685 1.18543 68.5891 1.18543H72.2351C73.1021 1.18543 73.6943 1.32102 74.0581 1.64256C74.4219 1.91761 74.7432 2.55294 74.9251 3.4207L82.1242 33.9746L90.0084 3.4207C90.2832 2.51032 90.6006 1.91761 90.918 1.64256C91.2818 1.36751 91.874 1.18543 92.6945 1.18543H96.9327C97.6604 1.18543 98.0706 1.54958 98.0706 2.32437C98.0706 2.55294 98.0242 2.7815 97.9778 3.05268C97.9313 3.32385 97.8423 3.69188 97.6604 4.19162L86.6798 39.4446C86.405 40.355 86.0876 40.9477 85.7238 41.2228C85.3599 41.4978 84.7678 41.6799 83.9937 41.6799H80.0767C79.2097 41.6799 78.6175 41.5443 78.2537 41.2228C77.8899 40.9012 77.5686 40.3124 77.3867 39.3981L70.3231 9.98318L63.3059 39.3516C63.0775 40.262 62.8066 40.8547 62.4389 41.1763C62.0712 41.4978 61.4364 41.6334 60.6159 41.6334H56.6989L56.6951 41.6373ZM115.248 42.8692C112.879 42.8692 110.51 42.5941 108.231 42.0479C105.951 41.5017 104.174 40.909 102.99 40.2233C102.262 39.8126 101.759 39.3555 101.577 38.9449C101.395 38.5342 101.303 38.0771 101.303 37.6665V35.3421C101.303 34.3852 101.666 33.9281 102.351 33.9281C102.626 33.9281 102.897 33.9746 103.172 34.0637C103.447 34.1567 103.857 34.3387 104.31 34.5208C105.858 35.2065 107.546 35.7527 109.322 36.1169C111.145 36.481 112.922 36.6631 114.745 36.6631C117.617 36.6631 119.846 36.1634 121.398 35.16C122.946 34.1567 123.767 32.6962 123.767 30.8289C123.767 29.5505 123.357 28.5046 122.536 27.6368C121.715 26.769 120.167 25.9942 117.934 25.2659L111.327 23.2127C108.002 22.1629 105.541 20.6133 104.035 18.5601C102.533 16.5534 101.755 14.3181 101.755 11.9473C101.755 10.0335 102.166 8.3445 102.986 6.88402C103.807 5.42354 104.898 4.14901 106.268 3.14565C107.635 2.09581 109.183 1.32102 111.006 0.774791C112.829 0.228563 114.741 0 116.746 0C117.748 0 118.797 0.0464875 119.8 0.182076C120.848 0.317664 121.805 0.49974 122.761 0.681816C123.67 0.910379 124.537 1.13894 125.358 1.41012C126.178 1.6813 126.817 1.95635 127.27 2.2314C127.908 2.59555 128.365 2.9597 128.636 3.37034C128.911 3.73449 129.046 4.23811 129.046 4.87344V7.01573C129.046 7.9726 128.682 8.47621 127.997 8.47621C127.633 8.47621 127.041 8.29414 126.267 7.92999C123.67 6.74456 120.756 6.15184 117.52 6.15184C114.923 6.15184 112.871 6.56248 111.459 7.43025C110.046 8.29801 109.318 9.61903 109.318 11.4902C109.318 12.7686 109.775 13.861 110.685 14.7288C111.594 15.5965 113.282 16.4604 115.697 17.2352L122.168 19.2884C125.451 20.3383 127.819 21.7949 129.232 23.666C130.645 25.5371 131.33 27.6794 131.33 30.0503C131.33 32.0105 130.92 33.7886 130.145 35.3421C129.325 36.8917 128.233 38.2592 126.821 39.3555C125.408 40.4944 123.72 41.3157 121.762 41.9084C119.711 42.5476 117.57 42.8653 115.248 42.8653V42.8692Z" fill="white"/>
<path d="M123.86 64.8478C108.869 75.9311 87.0901 81.8118 68.3608 81.8118C42.115 81.8118 18.4663 72.0998 0.607799 55.9532C-0.804931 54.6748 0.472332 52.9431 2.156 53.9465C21.4736 65.1654 45.3043 71.9603 69.9554 71.9603C86.587 71.9603 104.86 68.4932 121.673 61.3806C124.177 60.2416 126.321 63.0231 123.86 64.8478ZM130.103 57.7352C128.191 55.2713 117.435 56.5498 112.562 57.1425C111.103 57.3245 110.874 56.0461 112.198 55.0893C120.763 49.0691 134.844 50.8008 136.485 52.8075C138.126 54.8607 136.029 68.9503 128.009 75.7026C126.778 76.7524 125.594 76.2023 126.14 74.8348C127.963 70.3217 132.019 60.1487 130.103 57.7313V57.7352Z" fill="white"/>
</g>
<defs>
<clipPath id="clip0_260_462">
<rect width="137" height="82" fill="white"/>
</clipPath>
</defs>
</svg>
