<svg width="288" height="84" viewBox="0 0 288 84" fill="none" xmlns="http://www.w3.org/2000/svg">
<g clip-path="url(#clip0_260_496)">
<path fill-rule="evenodd" clip-rule="evenodd" d="M66.52 12.6642L50.6711 44.7433L78.5756 77.246L26.7874 83.1562L107.146 84L66.52 12.6642Z" fill="white"/>
<path fill-rule="evenodd" clip-rule="evenodd" d="M63.3957 0L27.0114 30.6032L0 76.4021L22.9906 74.0791L63.3957 0Z" fill="white"/>
<path d="M137.522 32.3884L120.118 75.2759H126.035L130.561 63.2538H149.799L154.609 75.2759H160.493L143.025 32.3884H137.519H137.522ZM140.115 37.5926H140.242C140.473 38.9071 140.707 39.8652 140.938 40.4636L148.056 58.7388H132.331L139.389 40.4636C139.663 39.7643 139.904 38.8096 140.118 37.5926H140.115ZM274.677 43.9331C270.435 43.9331 266.883 45.4392 264.013 48.4481C261.166 51.4402 259.741 55.3164 259.741 60.0836C259.741 65.1297 261.049 69.0463 263.665 71.8367C266.28 74.6069 269.876 75.9953 274.452 75.9953C279.029 75.9953 282.902 75.0204 285.749 73.0638V68.458C282.691 70.7306 279.336 71.867 275.687 71.867C272.439 71.867 269.886 70.9391 268.03 69.0867C266.173 67.2309 265.203 64.6019 265.12 61.1896H287.997V58.6178C287.997 54.012 286.836 50.4148 284.518 47.8228C282.196 45.2308 278.918 43.9331 274.677 43.9331ZM251.495 44.1146C249.619 44.1146 247.919 44.7231 246.401 45.9401C244.882 47.1369 243.755 48.8112 243.016 50.9628H242.888V44.6525H237.7V75.2793H242.888V59.6667C242.888 56.2577 243.628 53.5649 245.103 51.5914C246.601 49.618 248.458 48.6296 250.672 48.6296C252.382 48.6296 253.69 48.9591 254.596 49.618V44.5349C253.88 44.2558 252.843 44.118 251.495 44.118V44.1146ZM165.768 44.6525V48.8381H183.139L163.965 73.753V75.2793H190.575V71.0937H171.592L190.766 46.0611V44.6559H165.768V44.6525ZM198.566 44.6525V62.958C198.566 71.6518 202.427 75.9987 210.147 75.9987C214.659 75.9987 217.994 74.1429 220.145 70.4348H220.272V75.2793H225.461V44.6525H220.272V62.299C220.272 65.1499 219.45 67.4629 217.804 69.238C216.178 70.9929 214.101 71.8703 211.572 71.8703C206.34 71.8703 203.724 68.6395 203.724 62.1814V44.6559H198.566V44.6525ZM274.583 48.0615C277.115 48.0615 279.085 48.8481 280.5 50.4249C281.935 52.0016 282.661 54.2036 282.685 57.0343H265.187C265.588 54.3616 266.642 52.1999 268.351 50.5425C270.06 48.8885 272.138 48.0615 274.583 48.0615Z" fill="white"/>
</g>
<defs>
<clipPath id="clip0_260_496">
<rect width="288" height="84" fill="white"/>
</clipPath>
</defs>
</svg>
