<svg width="343" height="79" viewBox="0 0 343 79" fill="none" xmlns="http://www.w3.org/2000/svg">
<path d="M22.0821 63.6527C18.9553 63.6527 16.1074 61.0929 16.1074 57.9701C16.1074 54.8473 18.6705 52.2874 22.0821 52.2874C25.4937 52.2874 28.0568 54.8473 28.0568 57.9701C28.0568 61.0929 25.2089 63.6527 22.0821 63.6527ZM95.4874 32.6796C94.9179 28.1347 92.0759 24.4371 88.3735 21.5988L86.9496 20.4611L85.8104 21.8832C83.5321 24.4431 82.6836 28.988 82.9625 32.3952C83.2473 34.9551 84.1017 37.509 85.5256 39.5C84.3865 40.0689 82.9625 40.6377 81.8292 41.2066C79.2661 42.0599 76.7089 42.3443 74.1458 42.3443H0.455666L0.170876 44.0509C-0.398709 49.4491 0.455664 55.1317 2.73401 60.2455L3.87318 62.2365V62.5209C10.7023 73.8862 22.9365 79 36.3099 79C61.9175 79 82.9684 67.9191 92.9302 44.0509C99.4745 44.3353 106.019 42.6287 109.146 36.3772L110 34.9551L108.576 34.1018C104.88 31.8264 99.7534 31.5419 95.4874 32.6796ZM58.7848 28.1347H47.6897V39.2156H58.7848V28.1347ZM58.7848 14.2096H47.6897V25.2904H58.7848V14.2096ZM58.7848 0H47.6897V11.0809H58.7848V0ZM72.443 28.1347H61.3479V39.2156H72.443V28.1347ZM31.1895 28.1347H20.0945V39.2156H31.1895V28.1347ZM45.1266 28.1347H34.0315V39.2156H45.1266V28.1347ZM17.5314 28.1347H6.43631V39.2156H17.5314V28.1347ZM45.1266 14.2096H34.0315V25.2904H45.1266V14.2096ZM31.1895 14.2096H20.0945V25.2904H31.1895V14.2096Z" fill="white"/>
<path d="M287.128 57.0337C291.949 52.7763 296.769 48.7972 301.596 44.5398C303.299 43.1187 304.997 41.6976 306.7 39.9982C305.281 38.2929 303.299 37.156 301.312 36.3092C297.627 34.8881 293.936 35.4566 290.251 37.4461C285.714 40.0041 283.727 44.2615 284.011 49.3716C284.011 51.3611 284.579 53.3447 285.714 55.05C286.566 55.9027 286.85 56.4712 287.134 57.0396M292.8 61.0069C295.072 61.8595 297.905 61.8595 300.46 61.2911C301.596 60.7226 304.997 59.3015 306.133 59.5857H306.7C307.552 59.87 308.12 60.4384 308.404 61.2911C309.256 62.9964 308.972 64.6958 307.268 65.5485L306.7 65.8327C300.46 69.5216 293.936 68.9532 287.696 65.5485C284.857 63.8431 282.591 61.5753 280.888 58.7331L280.604 58.1646C276.635 51.3493 277.203 43.9654 281.74 37.4343C283.159 35.1605 285.425 33.4611 287.696 32.04L288.548 31.4716C294.504 28.0668 300.744 28.3511 306.7 31.1874C309.818 32.8927 312.657 35.1605 314.36 38.2869L314.644 38.8554C316.064 41.1292 314.36 43.1128 312.373 44.5339L306.416 49.6439C301.312 53.6171 297.059 57.312 292.8 61.0009V61.0069ZM339.031 29.7781H339.599C341.586 29.7781 343 31.1992 343 33.1828C343 36.025 340.445 36.5875 338.179 36.5875C335.34 36.5875 332.507 38.2929 330.52 40.2765C327.964 42.8345 326.835 45.955 326.835 49.3656V65.2642C326.835 66.9696 325.699 68.669 323.717 68.669H323.15C321.162 68.669 320.033 67.2479 320.033 65.2642V48.513C320.033 41.9818 323.15 36.8718 328.26 33.1828C331.945 30.9091 335.352 29.7781 339.037 29.7781H339.031ZM257.909 40.8509L265.568 33.1828C266.42 32.6144 268.969 29.4939 270.105 29.4939H271.241C272.66 29.7781 273.796 30.6308 273.796 32.3361V32.9045C273.796 34.0414 272.376 35.1783 271.809 36.025C270.389 37.7304 268.691 39.1455 267.272 40.8509L259.328 48.8031L269.537 59.0232L272.376 61.8654L273.512 63.0023C273.796 63.5708 274.08 63.855 274.08 64.4234V65.2761C273.796 66.6972 272.66 67.8341 271.241 67.8341H270.673C269.537 67.8341 268.402 66.6972 267.556 65.8445C266.136 64.4234 264.439 63.0023 263.019 61.3029L257.914 56.4771V64.4293C257.914 66.1347 256.779 67.8341 254.797 67.8341H254.229C252.242 67.8341 251.112 66.413 251.112 64.4293V20.7008C251.112 18.9955 252.248 17.5803 254.229 17.5803H254.797C256.785 17.5803 257.914 19.0014 257.914 20.7008V40.8627L257.909 40.8509ZM236.923 36.5875C236.071 36.0191 234.083 36.0191 232.954 36.0191C227.565 35.7349 223.596 38.8613 221.325 43.6871C220.473 45.3925 220.189 47.0919 220.189 49.0814C220.189 54.7599 223.028 58.7331 228.133 61.0069C229.836 61.8595 232.386 62.1437 234.373 62.1437C236.077 62.1437 238.626 61.0068 240.046 60.4384H241.465C242.885 60.7226 244.02 61.5753 244.02 63.2806V63.849C244.02 67.8222 236.645 68.6749 234.095 68.9591C224.454 69.5275 217.078 64.1333 214.239 55.0441C213.671 53.3388 213.671 51.9236 213.671 50.2183V48.7972C213.671 41.6976 217.072 36.0191 223.312 32.6144C226.152 30.909 229.269 30.0564 232.67 30.0564H234.089C237.49 30.0564 240.897 30.9091 243.731 32.8986L244.014 33.1828L244.298 33.467C244.582 34.0355 244.866 34.6039 244.866 35.1724V35.7408C244.866 37.4461 243.731 38.2988 242.027 38.583H241.743C239.756 38.0146 237.49 36.8777 236.923 36.5935V36.5875ZM177.36 48.7972C177.36 53.623 179.915 57.3179 183.884 59.87C185.871 61.0069 188.137 61.5753 190.408 61.5753C195.229 61.5753 198.919 59.0173 201.469 55.0441C202.604 53.0546 203.172 50.7867 203.172 48.513C203.172 43.9714 200.901 40.2765 197.216 37.7244C195.229 36.3033 192.679 35.7349 190.408 35.7349C185.019 35.7349 181.051 38.5771 178.779 43.4029C177.36 45.3925 177.36 47.0919 177.36 48.7972ZM189.272 29.4939H190.124C197.784 29.4939 203.456 33.1828 207.141 39.714C208.561 42.272 209.412 45.1082 209.412 48.2347V49.6558C209.412 56.7554 206.011 62.4339 199.771 65.8386C196.932 67.5439 193.815 68.3966 190.414 68.3966H188.994C181.902 68.3966 176.23 64.9919 172.829 58.7449C171.125 55.9027 170.274 52.7822 170.274 49.3775V47.9564C170.274 40.8568 173.675 35.1783 179.915 31.7736C183.032 30.3525 185.871 29.4998 189.272 29.4998V29.4939ZM134.246 48.7972C134.246 53.9072 136.801 57.8863 141.338 60.1542C143.042 61.0068 145.023 61.5753 147.294 61.5753C152.399 61.5753 156.09 59.3015 158.639 55.0441C159.775 53.0546 160.343 50.7867 160.343 48.513C160.343 43.9714 158.355 40.5607 154.67 38.0086C152.399 36.5875 150.133 35.7349 147.294 35.7349C141.906 35.7349 137.937 38.5771 135.666 43.4029C134.814 45.3925 134.246 47.0919 134.246 48.7972ZM160.337 34.3197V20.4047C160.337 18.6994 161.472 17 163.454 17H164.022C166.009 17 167.139 18.4211 167.139 20.4047V49.6499C167.139 56.7495 163.738 62.4279 157.498 65.8327C154.658 67.538 151.541 68.3907 148.14 68.3907H146.721C139.629 68.3907 133.956 64.9859 130.555 58.739C128.852 55.8968 128 52.7763 128 49.3716V47.9505C128 40.8509 131.401 35.1724 137.641 31.7676C140.48 30.0623 143.598 29.2096 146.999 29.2096H148.418C152.671 29.4939 156.93 31.1992 160.331 34.3197H160.337Z" fill="white"/>
</svg>
