<svg width="255" height="93" viewBox="0 0 255 93" fill="none" xmlns="http://www.w3.org/2000/svg">
<g clip-path="url(#clip0_260_415)">
<path d="M74.7168 42.916L49.8099 67.96L74.7168 93.004H46.2563L35.5756 82.268L21.3414 67.96L46.2563 42.916H74.7168ZM46.2563 0L0 46.496L14.2343 60.804L74.7168 0H46.2563Z" fill="white"/>
<mask id="mask0_260_415" style="mask-type:luminance" maskUnits="userSpaceOnUse" x="0" y="0" width="75" height="94">
<path d="M74.7168 42.916L49.8099 67.96L74.7168 93.004H46.2563L35.5756 82.268L21.3414 67.96L46.2563 42.916H74.7168ZM46.2563 0L0 46.496L14.2343 60.804L74.7168 0H46.2563Z" fill="white"/>
</mask>
<g mask="url(#mask0_260_415)">
<path d="M35.5755 82.264L74.7127 42.9119H46.2522L21.3452 67.956L35.5715 82.264H35.5755Z" fill="white"/>
</g>
<path d="M74.7168 42.916L49.8099 67.96L74.7168 93.004H46.2563L35.5756 82.268L21.3414 67.96L46.2563 42.916H74.7168ZM46.2563 0L0 46.496L14.2343 60.804L74.7168 0H46.2563Z" fill="white"/>
<mask id="mask1_260_415" style="mask-type:luminance" maskUnits="userSpaceOnUse" x="0" y="0" width="75" height="94">
<path d="M74.7168 42.916L49.8099 67.96L74.7168 93.004H46.2563L35.5756 82.268L21.3414 67.96L46.2563 42.916H74.7168ZM46.2563 0L0 46.496L14.2343 60.804L74.7168 0H46.2563Z" fill="white"/>
</mask>
<g mask="url(#mask1_260_415)">
<path d="M0 46.496L46.2563 0H74.7168L14.2343 60.804L0 46.496Z" fill="white"/>
</g>
<path d="M74.7168 42.916L49.8099 67.96L74.7168 93.004H46.2563L35.5756 82.268L21.3414 67.96L46.2563 42.916H74.7168ZM46.2563 0L0 46.496L14.2343 60.804L74.7168 0H46.2563Z" fill="white"/>
<mask id="mask2_260_415" style="mask-type:luminance" maskUnits="userSpaceOnUse" x="0" y="0" width="75" height="94">
<path d="M74.7168 42.916L49.8099 67.96L74.7168 93.004H46.2563L35.5756 82.268L21.3414 67.96L46.2563 42.916H74.7168ZM46.2563 0L0 46.496L14.2343 60.804L74.7168 0H46.2563Z" fill="white"/>
</mask>
<g mask="url(#mask2_260_415)">
<path d="M46.2564 92.992H74.7169L49.8099 67.956L35.5757 82.264L46.2564 92.992Z" fill="white"/>
</g>
<path d="M74.7168 42.916L49.8099 67.96L74.7168 93.004H46.2563L35.5756 82.268L21.3414 67.96L46.2563 42.916H74.7168ZM46.2563 0L0 46.496L14.2343 60.804L74.7168 0H46.2563Z" fill="white"/>
<mask id="mask3_260_415" style="mask-type:luminance" maskUnits="userSpaceOnUse" x="0" y="0" width="75" height="94">
<path d="M74.7168 42.916L49.8099 67.96L74.7168 93.004H46.2563L35.5756 82.268L21.3414 67.96L46.2563 42.916H74.7168ZM46.2563 0L0 46.496L14.2343 60.804L74.7168 0H46.2563Z" fill="white"/>
</mask>
<g mask="url(#mask3_260_415)">
<path d="M49.8099 67.956L35.5757 82.264L56.685 74.9149L49.8099 67.956Z" fill="white"/>
</g>
<path d="M74.7168 42.916L49.8099 67.96L74.7168 93.004H46.2563L35.5756 82.268L21.3414 67.96L46.2563 42.916H74.7168ZM46.2563 0L0 46.496L14.2343 60.804L74.7168 0H46.2563Z" fill="white"/>
<mask id="mask4_260_415" style="mask-type:luminance" maskUnits="userSpaceOnUse" x="0" y="0" width="75" height="94">
<path d="M74.7168 42.916L49.8099 67.96L74.7168 93.004H46.2563L35.5756 82.268L21.3414 67.96L46.2563 42.916H74.7168ZM46.2563 0L0 46.496L14.2343 60.804L74.7168 0H46.2563Z" fill="white"/>
</mask>
<g mask="url(#mask4_260_415)">
<path d="M21.3496 67.948L35.5839 53.64L49.8181 67.948L35.5839 82.264L21.3496 67.948Z" fill="white"/>
</g>
<path d="M74.7168 42.916L49.8099 67.96L74.7168 93.004H46.2563L35.5756 82.268L21.3414 67.96L46.2563 42.916H74.7168ZM46.2563 0L0 46.496L14.2343 60.804L74.7168 0H46.2563Z" fill="white"/>
<path d="M83.729 24.9274H108.672V29.7021H88.9553V44.5048H106.771V49.2795H88.9553V67.9037H83.9651V24.9274H83.729Z" fill="white"/>
<path d="M114.61 24.9274H119.601V68.145H114.61V24.9274Z" fill="white"/>
<path d="M138.365 69.1024C134.563 69.1024 131.95 67.9077 129.813 65.7597C127.912 63.6117 126.964 60.5063 126.964 56.6849V37.3448H131.954V55.9689C131.954 58.8329 132.666 60.985 133.855 62.417C135.28 63.849 136.944 64.565 139.317 64.565C140.982 64.565 142.643 64.0863 143.831 63.133C145.256 62.1797 146.208 60.985 146.921 59.553C147.633 58.121 148.109 56.4476 148.109 54.7783V37.3488H153.099V68.153H148.349V63.6157H148.113C147.165 65.0477 145.976 66.4797 144.075 67.437C142.411 68.6317 140.514 69.1104 138.373 69.1104L138.365 69.1024Z" fill="white"/>
<path d="M173.048 68.6237C171.86 68.6237 170.671 68.3863 169.487 67.9077C168.538 67.429 167.586 66.9543 166.873 66.2343C166.161 65.5183 165.449 64.561 164.973 63.6076C164.496 62.6543 164.26 61.4596 164.26 60.0276V41.8822H158.798V37.3448H164.26V28.7487H169.25V37.3448H176.614V41.8822H169.25V58.5956C169.25 60.269 169.487 61.4596 170.199 62.417C170.911 63.3703 172.1 63.849 173.524 63.849C174.713 63.849 175.901 63.6116 176.85 62.8956V67.9117C176.137 68.149 175.661 68.3904 174.949 68.6277C174.949 68.6277 174.001 68.6277 173.048 68.6277V68.6237Z" fill="white"/>
<path d="M194.666 68.6237C193.477 68.6237 192.289 68.3863 191.104 67.9077C190.156 67.429 189.203 66.9543 188.491 66.2343C187.779 65.5183 187.066 64.561 186.59 63.6076C186.114 62.6543 185.878 61.4596 185.878 60.0276V41.8822H180.888V37.3448H186.35V28.7487H191.34V37.3448H198.704V41.8822H191.34V58.5956C191.34 60.269 191.576 61.4596 192.289 62.417C193.001 63.3703 194.19 63.849 195.614 63.849C196.803 63.849 197.991 63.6116 198.94 62.8956V67.9117C198.227 68.149 197.751 68.3904 197.039 68.6277C196.563 68.6277 195.614 68.6277 194.662 68.6277L194.666 68.6237Z" fill="white"/>
<path d="M217.231 69.1024C214.382 69.1024 211.769 68.3864 209.392 66.9543C207.015 65.5223 205.354 63.6117 203.93 61.2223C202.741 58.8329 202.029 55.9689 202.029 52.8636C202.029 49.9995 202.741 47.1315 203.93 44.7462C205.118 42.3568 207.019 40.2088 209.156 38.7768C211.293 37.3448 213.906 36.6288 216.995 36.6288C220.085 36.6288 222.698 37.3448 224.835 38.7768C226.972 40.2088 228.636 41.8822 229.825 44.2675C231.014 46.6528 231.726 49.2835 231.726 52.3849C231.726 53.1009 231.726 53.5796 231.49 54.0582H207.023C207.259 56.4476 207.735 58.3583 208.688 60.0276C209.636 61.701 211.065 62.8916 212.489 63.6076C214.154 64.3236 215.579 64.8023 217.239 64.8023C221.277 64.8023 224.127 62.8916 226.267 59.3116L230.545 61.4596C229.121 63.849 227.456 65.997 225.083 67.429C223.182 68.3823 220.569 69.1024 217.243 69.1024H217.231ZM226.019 49.5209C226.019 48.3262 225.543 46.8942 224.831 45.6995C224.119 44.5048 223.166 43.3101 221.741 42.3568C220.317 41.4035 218.652 40.9248 216.515 40.9248C214.138 40.9248 212.001 41.6408 210.34 43.3142C208.676 44.7462 207.727 46.8942 207.015 49.5209H226.019Z" fill="white"/>
<path d="M237.425 37.3448H242.175V42.3608H242.411C243.123 40.6875 244.076 39.2555 245.972 38.3021C247.637 37.1075 249.534 36.6288 251.435 36.6288C252.859 36.6288 254.048 36.8661 254.996 37.3448V42.8355C253.808 42.1195 252.383 41.8822 250.718 41.8822C249.294 41.8822 247.869 42.3608 246.681 43.0768C245.492 44.0302 244.544 44.9875 243.591 46.4195C242.879 47.8515 242.403 49.2835 242.403 50.9569V68.149H237.413V37.3448H237.425Z" fill="white"/>
</g>
<defs>
<clipPath id="clip0_260_415">
<rect width="255" height="93" fill="white"/>
</clipPath>
</defs>
</svg>
