<svg width="244" height="49" viewBox="0 0 244 49" fill="none" xmlns="http://www.w3.org/2000/svg">
<g clip-path="url(#clip0_260_393)">
<path d="M204.703 0.0189886V7.83278H187.842V48.943H179.411V7.83278H162.203V0.0189886H204.703ZM206.599 44.2813C207.195 44.2813 207.715 44.495 208.153 44.9222C208.601 45.3494 208.82 45.8574 208.83 46.4508C208.825 46.8543 208.72 47.2246 208.515 47.5569C208.305 47.8939 208.034 48.155 207.7 48.3496C207.367 48.5443 207.004 48.6487 206.604 48.6487C205.985 48.6487 205.46 48.4351 205.022 48.0078C204.583 47.5806 204.364 47.0679 204.369 46.4555C204.364 45.8621 204.579 45.3494 205.022 44.927C205.465 44.5045 205.985 44.2861 206.604 44.2861L206.599 44.2813ZM39.5166 48.943L8.43039 10.458V48.924H0V0H10.5368L49.8103 48.5775V7.83278V0.0189886H92.3102V7.83278H58.2455V20.4032H85.643V28.217H58.2455V41.1292H92.3102V48.943H39.5166ZM119.322 28.1458L124.845 34.9864L113.527 49H102.461L119.322 28.1411V28.1458ZM113.527 0.0427243L127.79 17.6878L142.011 0.0949428L153.043 0.0759543L133.314 24.519L153.072 48.962H142.006L102.494 0.0427243H113.527ZM220.987 28.0366H224.723V42.373C224.718 43.6927 224.432 44.8178 223.87 45.7672C223.303 46.7166 222.521 47.4382 221.516 47.9461C220.515 48.4493 219.347 48.7104 218.013 48.7104C216.798 48.7104 215.706 48.4921 214.734 48.0648C213.762 47.6376 212.99 47.0015 212.428 46.1565C211.856 45.3162 211.575 44.2671 211.575 43.0091H215.316C215.32 43.5598 215.449 44.0345 215.687 44.4332C215.926 44.832 216.259 45.1358 216.683 45.3494C217.112 45.5631 217.603 45.6675 218.156 45.6675C218.756 45.6675 219.271 45.5441 219.686 45.2925C220.1 45.0456 220.424 44.6754 220.644 44.1816C220.858 43.6927 220.977 43.0898 220.982 42.373V28.0366H220.987ZM240.092 33.643C240.002 32.7743 239.601 32.0954 238.906 31.6112C238.205 31.1223 237.295 30.8802 236.18 30.8802C235.398 30.8802 234.721 30.9988 234.164 31.2267C233.606 31.4641 233.168 31.7774 232.872 32.1761C232.577 32.5749 232.429 33.0306 232.415 33.5386C232.415 33.9658 232.52 34.3361 232.72 34.6446C232.92 34.958 233.187 35.2238 233.535 35.4374C233.878 35.6558 234.259 35.8362 234.678 35.9833C235.103 36.1305 235.522 36.2539 235.946 36.3536L237.895 36.8283C238.677 37.0087 239.439 37.2508 240.164 37.5594C240.888 37.8632 241.546 38.2477 242.122 38.7129C242.699 39.1782 243.156 39.7383 243.495 40.3934C243.833 41.0485 244.005 41.8176 244.005 42.7053C244.005 43.9016 243.695 44.9459 243.075 45.8574C242.451 46.7593 241.555 47.4667 240.378 47.9746C239.206 48.4778 237.79 48.7389 236.122 48.7389C234.454 48.7389 233.106 48.4921 231.924 47.9984C230.737 47.5094 229.808 46.7926 229.141 45.8526C228.474 44.9127 228.111 43.7592 228.059 42.411H231.762C231.814 43.1183 232.043 43.7069 232.429 44.1816C232.825 44.6516 233.339 44.9982 233.964 45.2355C234.597 45.4634 235.307 45.5821 236.089 45.5821C236.871 45.5821 237.624 45.4586 238.248 45.2165C238.863 44.9744 239.349 44.6374 239.697 44.2006C240.049 43.7687 240.226 43.2607 240.235 42.6768C240.23 42.1451 240.068 41.6989 239.759 41.3524C239.444 41.0058 239.01 40.7115 238.458 40.4789C237.9 40.2415 237.247 40.0326 236.504 39.8475L234.14 39.2541C232.434 38.8221 231.08 38.167 230.089 37.2841C229.098 36.4058 228.602 35.238 228.602 33.7759C228.602 32.5749 228.936 31.521 229.603 30.6191C230.265 29.7171 231.176 29.0145 232.319 28.5161C233.473 28.0129 234.774 27.766 236.227 27.766C237.681 27.766 238.991 28.0129 240.106 28.5161C241.222 29.0145 242.094 29.7124 242.728 30.5953C243.361 31.483 243.695 32.4942 243.709 33.643H240.087H240.092Z" fill="white"/>
</g>
<defs>
<clipPath id="clip0_260_393">
<rect width="244" height="49" fill="white"/>
</clipPath>
</defs>
</svg>
