<svg width="239" height="76" viewBox="0 0 239 76" fill="none" xmlns="http://www.w3.org/2000/svg">
<g clip-path="url(#clip0_260_409)">
<path d="M28.9519 18.3615C32.8442 18.3615 36.5174 19.1373 39.9717 20.685C43.4259 22.2328 46.4652 24.3182 49.0856 26.9374C51.7061 29.5566 53.7925 32.6137 55.3409 36.1085C56.8894 39.6034 57.6655 43.3326 57.6655 47.3037C57.6655 51.2747 56.9086 54.9847 55.4024 58.4373C53.8924 61.8899 51.8483 64.9278 49.2662 67.547C46.6842 70.1663 43.6449 72.2325 40.1522 73.7379C36.6557 75.2473 32.8826 76 28.8328 76C24.783 76 21.1289 75.2857 17.6324 73.857C14.1359 72.4283 11.0813 70.4236 8.45695 67.8427C5.83648 65.2619 3.76932 62.2279 2.26313 58.733C0.753095 55.242 0 51.4284 0 47.2998C0 43.1713 0.733883 39.6188 2.20549 36.1661C3.67326 32.7135 5.72121 29.6949 8.34168 27.114C10.9621 24.5332 14.0398 22.4709 17.5748 20.9231C21.1097 19.3754 24.9021 18.5228 28.9519 18.3615ZM28.8328 30.1519C26.5274 30.1519 24.3257 30.5897 22.2201 31.4615C20.1145 32.3372 18.2894 33.5469 16.741 35.0946C15.1925 36.6424 13.9591 38.4474 13.0485 40.5136C12.134 42.5798 11.6768 44.8419 11.6768 47.2998C11.6768 49.6041 12.134 51.8047 13.0485 53.9093C13.9591 56.0139 15.1925 57.8612 16.741 59.4474C18.2894 61.0373 20.1145 62.2855 22.2201 63.1996C24.3257 64.1136 26.5274 64.5706 28.8328 64.5706C31.1382 64.5706 33.3398 64.1136 35.4454 63.1996C37.551 62.2894 39.3761 61.0373 40.9245 59.4474C42.473 57.8612 43.7025 56.0139 44.617 53.9093C45.5276 51.8047 45.9887 49.6041 45.9887 47.2998C45.7505 42.6182 44.0829 38.6663 40.986 35.4518C37.8891 32.2373 33.8777 30.4707 28.9519 30.1519H28.8328Z" fill="white"/>
<path d="M111.873 0.0230138C113.222 -0.0537965 114.493 0.480035 115.684 1.63219C116.876 2.78435 117.471 4.03635 117.471 5.38438V47.1846C117.471 51.075 116.676 54.7657 115.089 58.2606C113.498 61.7555 111.354 64.8087 108.657 67.4318C105.956 70.051 102.878 72.1364 99.4238 73.6841C95.9696 75.2319 92.3347 76.0077 88.5231 76.0077C84.7116 76.0077 80.9384 75.2549 77.4419 73.7456C73.9454 72.2401 70.8907 70.1739 68.2664 67.5547C65.646 64.9354 63.5596 61.8784 62.0111 58.3835C60.4627 54.8925 59.6865 51.1595 59.6865 47.1884C59.6865 42.9024 60.382 39.131 61.7729 35.8742C63.16 32.6213 65.2464 29.5643 68.0282 26.7031V26.8221C70.9676 24.0455 74.2028 21.9408 77.7377 20.5122C81.2727 19.0835 84.9037 18.3692 88.6384 18.3692C90.8631 18.3692 93.5028 18.7263 96.5613 19.4407C99.6198 20.155 102.655 21.5453 105.675 23.6076V5.97582C105.675 5.18467 105.833 4.42809 106.152 3.71375C106.467 2.99941 106.886 2.34269 107.404 1.74741C107.919 1.15213 108.538 0.695104 109.252 0.376341C109.967 0.061419 110.682 -0.057637 111.396 0.0191733H111.873V0.0230138ZM105.679 47.1807C105.679 45.0377 105.222 42.9331 104.307 40.8708C103.393 38.8084 102.14 36.9611 100.553 35.3327C98.9627 33.7082 97.1376 32.4139 95.0743 31.4615C93.0071 30.509 90.8247 30.0328 88.5231 30.0328C86.2216 30.0328 84.0161 30.4898 81.9105 31.4039C79.8049 32.3179 77.9798 33.5469 76.4314 35.0946C74.8829 36.6423 73.6495 38.4704 72.7389 40.5712C71.8244 42.6758 71.3672 44.8803 71.3672 47.1807C71.3672 49.4812 71.8244 51.7855 72.7389 53.8479C73.6495 55.9141 74.8829 57.7191 76.4314 59.2668C77.9798 60.8146 79.8049 62.0474 81.9105 62.9576C84.0161 63.8716 86.2177 64.3286 88.5231 64.3286C90.8285 64.3286 93.011 63.8716 95.0743 62.9576C97.1376 62.0474 98.9666 60.8146 100.553 59.2668C102.14 57.7191 103.393 55.9141 104.307 53.8479C105.218 51.7855 105.679 49.5618 105.679 47.1807Z" fill="white"/>
<path d="M149.762 18.3615C153.654 18.3615 157.328 19.1373 160.782 20.685C164.236 22.2328 167.275 24.3182 169.896 26.9374C172.516 29.5566 174.603 32.6137 176.151 36.1085C177.7 39.6034 178.476 43.3326 178.476 47.3037C178.476 51.2747 177.719 54.9847 176.213 58.4373C174.703 61.8899 172.659 64.9278 170.077 67.547C167.494 70.1663 164.455 72.2325 160.963 73.7379C157.466 75.2473 153.693 76 149.643 76C145.593 76 141.939 75.2857 138.443 73.857C134.946 72.4283 131.892 70.4236 129.267 67.8427C126.647 65.2619 124.58 62.2279 123.073 58.733C121.563 55.242 120.81 51.4284 120.81 47.2998C120.81 43.1713 121.544 39.6188 123.016 36.1661C124.484 32.7135 126.532 29.6949 129.152 27.114C131.772 24.5332 134.85 22.4709 138.385 20.9231C141.92 19.3754 145.712 18.5228 149.762 18.3615ZM149.643 30.1519C147.338 30.1519 145.136 30.5897 143.03 31.4615C140.925 32.3372 139.1 33.5469 137.551 35.0946C136.003 36.6424 134.769 38.4474 133.859 40.5136C132.944 42.5798 132.487 44.8419 132.487 47.2998C132.487 49.6041 132.944 51.8047 133.859 53.9093C134.769 56.0139 136.003 57.8612 137.551 59.4474C139.1 61.0373 140.925 62.2855 143.03 63.1996C145.136 64.1136 147.338 64.5706 149.643 64.5706C151.948 64.5706 154.15 64.1136 156.256 63.1996C158.361 62.2894 160.186 61.0373 161.735 59.4474C163.283 57.8612 164.513 56.0139 165.427 53.9093C166.338 51.8047 166.799 49.6041 166.799 47.2998C166.561 42.6182 164.893 38.6663 161.796 35.4518C158.699 32.2373 154.688 30.4707 149.762 30.1519H149.643Z" fill="white"/>
<path d="M210.286 18.3615C214.179 18.3615 217.852 19.1373 221.306 20.685C224.76 22.2328 227.8 24.3182 230.42 26.9374C233.041 29.5566 235.127 32.6137 236.675 36.1085C238.224 39.6034 239 43.3326 239 47.3037C239 51.2747 238.243 54.9847 236.737 58.4373C235.227 61.8899 233.183 64.9278 230.601 67.547C228.019 70.1663 224.979 72.2325 221.487 73.7379C217.99 75.2473 214.221 76 210.167 76C206.114 76 202.463 75.2857 198.967 73.857C195.47 72.4283 192.416 70.4236 189.791 67.8427C187.171 65.2619 185.104 62.2279 183.598 58.733C182.088 55.242 181.334 51.4284 181.334 47.2998C181.334 43.1713 182.068 39.6188 183.54 36.1661C185.008 32.7135 187.056 29.6949 189.676 27.114C192.297 24.5332 195.374 22.4709 198.909 20.9231C202.444 19.3754 206.237 18.5228 210.286 18.3615ZM210.167 30.1519C207.862 30.1519 205.66 30.5897 203.555 31.4615C201.449 32.3372 199.624 33.5469 198.075 35.0946C196.527 36.6424 195.294 38.4474 194.383 40.5136C193.469 42.5798 193.011 44.8419 193.011 47.2998C193.011 49.6041 193.469 51.8047 194.383 53.9093C195.294 56.0139 196.527 57.8612 198.075 59.4474C199.624 61.0373 201.449 62.2855 203.555 63.1996C205.656 64.1136 207.862 64.5706 210.167 64.5706C212.473 64.5706 214.674 64.1136 216.78 63.1996C218.882 62.2894 220.711 61.0373 222.259 59.4474C223.807 57.8612 225.037 56.0139 225.951 53.9093C226.862 51.8047 227.323 49.6041 227.323 47.2998C227.085 42.6182 225.417 38.6663 222.32 35.4518C219.224 32.2373 215.212 30.4707 210.286 30.1519H210.167Z" fill="white"/>
</g>
<defs>
<clipPath id="clip0_260_409">
<rect width="239" height="76" fill="white"/>
</clipPath>
</defs>
</svg>
