<svg width="244" height="71" viewBox="0 0 244 71" fill="none" xmlns="http://www.w3.org/2000/svg">
<g clip-path="url(#clip0_260_396)">
<path d="M91.9986 30.2291C91.9986 22.7272 89.8659 18.8732 85.5954 18.6619C83.8995 18.5795 82.2396 18.8526 80.626 19.4812C79.3412 19.9449 78.4727 20.3983 78.0154 20.862V38.7717C80.7442 40.4875 83.1698 41.2861 85.2819 41.1625C89.7528 40.8688 91.9934 37.226 91.9934 30.2291H91.9986ZM97.2661 30.5382C97.2661 34.351 96.3719 37.5146 94.5835 40.0289C92.5844 42.8782 89.8145 44.3415 86.2737 44.4239C83.6015 44.5115 80.8521 43.6717 78.0256 41.9147V58.1911L73.4468 56.5527V20.4241C74.1971 19.5018 75.1632 18.7083 76.3349 18.0334C79.0586 16.4413 82.3732 15.622 86.2686 15.5808L86.3354 15.6478C89.8967 15.6014 92.641 17.0699 94.5681 20.0428C96.3667 22.7684 97.2661 26.2669 97.2661 30.5382Z" fill="white"/>
<path d="M125.243 41.2191C125.243 46.3303 124.734 49.87 123.711 51.8434C122.684 53.8116 120.731 55.3831 117.848 56.5527C115.51 57.4749 112.981 57.9799 110.263 58.0623L109.507 55.1718C112.267 54.7957 114.209 54.4196 115.34 54.0434C117.56 53.2912 119.081 52.1371 119.919 50.5862C120.592 49.3238 120.921 46.9177 120.921 43.3574V42.162C117.791 43.5892 114.508 44.2951 111.08 44.2951C108.824 44.2951 106.835 43.5892 105.124 42.162C103.202 40.6111 102.241 38.6429 102.241 36.2574V17.1523L106.82 15.5808V34.8095C106.82 36.8654 107.483 38.4471 108.803 39.5549C110.124 40.6627 111.84 41.1985 113.937 41.1573C116.034 41.1109 118.285 40.2969 120.674 38.7048V16.2764H125.253V41.2191H125.243Z" fill="white"/>
<path d="M143.116 44.1766C142.572 44.223 142.068 44.2384 141.611 44.2384C139.021 44.2384 137.001 43.6201 135.562 42.3784C134.123 41.1367 133.404 39.4261 133.404 37.2415V19.1617H130.269V16.2764H133.404V8.60963L137.977 6.97632V16.2764H143.121V19.1617H137.977V37.1178C137.977 38.8387 138.44 40.0598 139.36 40.776C140.151 41.3634 141.41 41.6983 143.121 41.7859V44.1766H143.116Z" fill="white"/>
<path d="M170.836 43.7953H166.257V26.0763C166.257 24.2729 165.836 22.7221 164.998 21.4237C164.032 19.9552 162.691 19.2236 160.964 19.2236C158.867 19.2236 156.241 20.3313 153.091 22.552V43.7902H148.512V1.44782L153.091 0V19.2906C156.015 17.1575 159.212 16.0858 162.686 16.0858C165.111 16.0858 167.074 16.905 168.575 18.5383C170.081 20.1716 170.836 22.2068 170.836 24.6336V43.7953Z" fill="white"/>
<path d="M195.169 29.5026C195.169 26.6224 194.625 24.242 193.535 22.3562C192.24 20.0634 190.236 18.8526 187.517 18.7238C182.496 19.0175 179.994 22.619 179.994 29.5335C179.994 32.7022 180.513 35.3506 181.566 37.4733C182.908 40.1783 184.922 41.518 187.61 41.4716C192.651 41.4304 195.169 37.4424 195.169 29.5026ZM200.185 29.5335C200.185 33.6348 199.137 37.0508 197.05 39.7765C194.753 42.8318 191.577 44.3621 187.522 44.3621C183.468 44.3621 180.374 42.8318 178.118 39.7765C176.068 37.0508 175.05 33.6348 175.05 29.5335C175.05 25.6744 176.155 22.4335 178.37 19.7903C180.708 16.9874 183.786 15.5808 187.584 15.5808C191.382 15.5808 194.481 16.9874 196.865 19.7903C199.08 22.4335 200.185 25.6744 200.185 29.5335Z" fill="white"/>
<path d="M226.43 43.7953H221.851V25.0715C221.851 23.0157 221.234 21.4133 220.001 20.2592C218.768 19.1102 217.123 18.5538 215.078 18.595C212.904 18.6362 210.833 19.3472 208.87 20.7281V43.7902H204.291V20.1613C206.927 18.2395 209.353 16.9823 211.563 16.3949C213.649 15.8488 215.494 15.5757 217.082 15.5757C218.171 15.5757 219.189 15.6787 220.15 15.89C221.949 16.3073 223.413 17.0802 224.539 18.2137C225.798 19.4709 226.42 20.9754 226.42 22.7375V43.785L226.43 43.7953Z" fill="white"/>
<path d="M28.2236 1.61786C25.8699 1.62816 23.619 1.82911 21.6405 2.17947C15.8077 3.20995 14.7491 5.37395 14.7491 9.36191V14.6277H28.5268V16.3846H9.57925C5.57596 16.3846 2.06602 18.7959 0.971414 23.3867C-0.292782 28.6473 -0.349311 31.9345 0.971414 37.427C1.95296 41.518 4.29121 44.4291 8.2945 44.4291H13.0327V38.1174C13.0327 33.5576 16.9691 29.5335 21.6405 29.5335H35.4028C39.2365 29.5335 42.2942 26.37 42.2942 22.516V9.36191C42.2942 5.61612 39.1439 2.80806 35.4028 2.17947C33.0337 1.78273 30.5824 1.6024 28.2236 1.61786ZM20.772 5.84797C22.1955 5.84797 23.3569 7.03302 23.3569 8.486C23.3569 9.93897 22.1955 11.1086 20.772 11.1086C19.3485 11.1086 18.1871 9.93382 18.1871 8.486C18.1871 7.03818 19.3434 5.84797 20.772 5.84797Z" fill="white"/>
<path d="M44.0105 16.3795V22.516C44.0105 27.2716 39.9867 31.275 35.4027 31.275H21.6404C17.8684 31.275 14.749 34.5107 14.749 38.2977V51.4518C14.749 55.1976 17.9969 57.3977 21.6404 58.4694C26.0034 59.7575 30.1866 59.9893 35.4027 58.4694C38.8715 57.4595 42.2941 55.4346 42.2941 51.4518V46.1861H28.5318V44.4291H49.1855C53.1888 44.4291 54.6842 41.6262 56.0769 37.427C57.5158 33.099 57.4542 28.9358 56.0769 23.3867C55.0851 19.3885 53.1991 16.3846 49.1855 16.3846H44.0157L44.0105 16.3795ZM36.2712 49.6948C37.6998 49.6948 38.8561 50.8696 38.8561 52.3174C38.8561 53.7652 37.6998 54.9554 36.2712 54.9554C34.8425 54.9554 33.6863 53.7704 33.6863 52.3174C33.6863 50.8644 34.8477 49.6948 36.2712 49.6948Z" fill="white"/>
<path d="M235.346 12.1854H236.148V7.13609H238.049V6.53326H233.445V7.13609H235.346V12.1854ZM238.763 12.1854H239.447V7.57405L240.937 12.1854H241.703L243.255 7.5895V12.1854H244.005V6.53842H243.013L241.318 11.3765L239.873 6.53842H238.769V12.1854" fill="white"/>
<path opacity="0.44" d="M47.1506 67.4139C47.1506 69.3976 38.8819 71.0051 28.6861 71.0051C18.4903 71.0051 10.2217 69.3976 10.2217 67.4139C10.2217 65.4302 18.4903 63.8227 28.6861 63.8227C38.8819 63.8227 47.1506 65.4302 47.1506 67.4139Z" fill="white"/>
</g>
<defs>
<clipPath id="clip0_260_396">
<rect width="244" height="71" fill="white"/>
</clipPath>
</defs>
</svg>
