<svg width="257" height="66" viewBox="0 0 257 66" fill="none" xmlns="http://www.w3.org/2000/svg">
<g clip-path="url(#clip0_260_379)">
<path d="M60.24 3.89196C59.3549 6.06928 58.1294 8.17856 56.6997 10.0837C44.0362 -3.04824 23.1347 -3.38845 10.0628 9.26722C-3.00916 21.9229 -3.41766 42.8116 9.24579 55.8755C9.65429 56.3518 10.1309 56.76 10.6075 57.1683L11.833 58.2569C25.7219 69.96 46.5553 68.1909 58.2656 54.3105C62.7591 49.0033 65.4824 42.3353 65.959 35.3951C66.9122 27.1621 64.3931 16.5476 60.24 3.89196ZM15.3733 57.5085C14.4201 58.7332 12.6499 58.8693 11.4245 57.9167C10.199 56.9641 10.0628 55.1951 11.016 53.9703C11.9691 52.7456 13.7393 52.6095 14.9648 53.5621C16.1222 54.5146 16.3264 56.2837 15.3733 57.5085ZM60.0358 47.6425C51.9339 58.461 34.5046 54.7868 23.4071 55.3311C23.4071 55.3311 21.4327 55.4672 19.4583 55.7394C19.4583 55.7394 20.2072 55.3992 21.1603 55.059C28.9899 52.3373 32.6664 51.793 37.4322 49.3435C46.3511 44.7847 55.27 34.7827 57.0401 24.4404C53.636 34.3744 43.2873 42.9476 33.8919 46.4177C27.424 48.7992 15.7818 51.1126 15.7818 51.1126L15.3052 50.8404C7.40755 46.9621 7.13522 29.8157 21.5688 24.3043C27.9006 21.8549 33.8919 23.2157 40.7683 21.5827C48.0531 19.8817 56.4954 14.4384 59.8996 7.29403C63.7123 18.793 68.3419 36.6198 60.0358 47.6425Z" fill="white"/>
<path d="M84.6818 46.0095C83.7968 45.4651 83.2521 44.5126 83.3202 43.4919C83.3202 41.859 84.6138 40.4981 86.2477 40.4981H86.3158C86.8605 40.4981 87.4052 40.6342 87.8817 40.9064C90.6051 42.8115 93.805 43.8322 97.073 43.9682C100.205 43.9682 102.043 42.6074 102.043 40.4981V40.3621C102.043 37.8445 98.6389 37.028 94.8943 35.8713C90.1966 34.5105 84.8861 32.6054 84.8861 26.4816V26.3456C84.8861 20.2899 89.9242 16.6157 96.256 16.6157C99.7963 16.6837 103.2 17.5682 106.332 19.2012C107.422 19.7456 108.102 20.7662 108.102 21.9909C108.102 23.6239 106.741 24.9847 105.107 24.9847H105.039C104.562 24.9847 104.086 24.8487 103.609 24.6445C101.294 23.3517 98.775 22.6033 96.1198 22.4672C93.2603 22.4672 91.6263 23.828 91.6263 25.5971V25.7332C91.6263 28.1146 95.0985 29.0672 98.8431 30.292C103.541 31.7208 108.783 33.8981 108.783 39.6136V39.7497C108.783 46.4858 103.541 49.8198 96.9368 49.8198C92.5795 49.7517 88.2902 48.459 84.6818 46.0095Z" fill="white"/>
<path d="M111.506 20.3579C111.438 18.3847 113.072 16.7517 115.047 16.6837H115.115C117.157 16.6837 118.791 18.3167 118.791 20.3579V22.5352C121.174 19.2012 124.51 16.5476 129.685 16.5476C137.174 16.5476 144.527 22.4672 144.527 33.1497V33.2857C144.527 43.9002 137.242 49.8878 129.685 49.8878C124.374 49.8878 121.038 47.2342 118.791 44.2404V55.5352C118.791 57.5765 117.157 59.2095 115.115 59.2095C113.14 59.2095 111.506 57.5765 111.506 55.6033V20.3579ZM137.174 33.2857V33.1497C137.174 26.9579 133.021 22.9435 128.051 22.9435C123.081 22.9435 118.723 27.094 118.723 33.1497V33.2857C118.723 39.4095 123.081 43.4919 128.051 43.4919C133.021 43.4919 137.174 39.6136 137.174 33.2857Z" fill="white"/>
<path d="M147.386 20.3579C147.318 18.3847 148.952 16.7517 150.927 16.6837H150.995C153.037 16.6837 154.671 18.3167 154.671 20.3579V22.127C155.012 19.4053 159.505 16.6837 162.705 16.6837C164.543 16.5476 166.177 17.9084 166.314 19.7455V20.2899C166.314 22.0589 165.088 23.5559 163.386 23.828C158.144 24.7126 154.603 29.2713 154.603 35.5992V46.1455C154.603 48.1868 152.969 49.7517 150.927 49.7517C148.884 49.7517 147.318 48.1868 147.318 46.2136V46.1455L147.386 20.3579Z" fill="white"/>
<path d="M169.241 20.426C169.173 18.4528 170.807 16.8198 172.781 16.7518H172.849C174.892 16.7518 176.526 18.3848 176.526 20.426V46.2136C176.526 48.2549 174.892 49.8198 172.849 49.8198C170.807 49.8198 169.241 48.1868 169.241 46.2136V20.426Z" fill="white"/>
<path d="M180.27 20.426C180.202 18.4528 181.836 16.8198 183.811 16.7518H183.879C185.921 16.7518 187.555 18.3848 187.555 20.426V21.9229C189.734 18.5208 193.546 16.5476 197.563 16.6837C204.78 16.6837 208.933 21.5147 208.933 28.9312V46.1456C209.001 48.1188 207.435 49.6837 205.461 49.7518H205.325C203.35 49.8198 201.716 48.1868 201.648 46.2136V31.1765C201.648 26.2095 199.197 23.3518 194.772 23.3518C190.347 23.3518 187.555 26.3456 187.555 31.3126V46.2136C187.555 48.2549 185.921 49.8879 183.879 49.8879C181.836 49.8879 180.202 48.2549 180.202 46.2136L180.27 20.426Z" fill="white"/>
<path d="M241.205 16.6157C239.162 16.6157 237.528 18.2487 237.528 20.2899V22.4672C235.145 19.1332 231.809 16.4796 226.635 16.4796C219.146 16.4796 211.793 22.3992 211.793 33.0817V33.2178C211.793 43.8322 219.078 49.8198 226.635 49.8198C231.946 49.8198 235.282 47.1662 237.528 44.2404C237.188 50.0239 233.648 53.0178 227.452 53.0178C224.048 53.0178 220.644 52.2013 217.648 50.5002C217.24 50.2961 216.831 50.2281 216.355 50.2281C214.652 50.2281 213.291 51.5209 213.223 53.2219C213.223 54.5147 214.04 55.7394 215.265 56.1477C219.146 58.0528 223.367 59.0054 227.656 59.0054C233.443 59.0054 237.937 57.6446 240.796 54.7188C243.452 52.0652 244.881 48.0507 244.881 42.6755V20.358C244.949 18.3167 243.315 16.6837 241.273 16.6157H241.205ZM228.337 43.492C223.299 43.492 219.214 39.5456 219.214 33.2178V33.0817C219.214 26.8899 223.367 22.8755 228.337 22.8755C233.307 22.8755 237.665 27.026 237.665 33.0817V33.2178C237.733 39.3415 233.375 43.492 228.337 43.492Z" fill="white"/>
<path d="M176.594 7.90638C176.594 9.94762 174.96 11.5806 172.917 11.5806C170.875 11.5806 169.241 9.94762 169.241 7.90638C169.241 5.86514 170.875 4.23215 172.917 4.23215C174.892 4.16411 176.526 5.7971 176.594 7.7703V7.90638Z" fill="white"/>
<path d="M253.255 24.3044C251.213 24.3044 249.511 22.6033 249.511 20.5621C249.511 18.5209 251.213 16.8198 253.255 16.8198C255.298 16.8198 257 18.5209 257 20.5621C257 22.6033 255.298 24.3044 253.255 24.3044ZM253.255 17.3642C251.485 17.3642 250.055 18.793 250.055 20.5621C250.055 22.3312 251.485 23.76 253.255 23.76C255.025 23.76 256.455 22.3312 256.455 20.5621C256.455 18.793 255.094 17.3642 253.323 17.3642H253.255ZM254.277 22.6714L253.187 20.9703H252.438V22.6714H251.826V18.3848H253.596C254.345 18.3167 254.957 18.9291 255.025 19.6776C255.025 20.2899 254.549 20.8343 253.936 20.9703L255.094 22.6714H254.277ZM253.528 18.9291H252.438V20.426H253.596C254.004 20.426 254.345 20.0858 254.345 19.6776C254.345 19.2693 254.004 18.9291 253.528 18.9291Z" fill="white"/>
<path d="M58.2656 54.3105C62.7591 49.0033 65.4824 42.3352 65.959 35.395L58.2656 54.3105Z" fill="white"/>
<path d="M60.0356 47.6425C51.9337 58.461 34.5044 54.7868 23.4069 55.3311C23.4069 55.3311 21.4324 55.4672 19.458 55.7394C19.458 55.7394 20.207 55.3992 21.1601 55.059C28.9897 52.3373 32.6662 51.793 37.432 49.3435C46.3509 44.7847 55.2697 34.7827 57.0399 24.4404C53.6357 34.3744 43.2871 42.9476 33.8916 46.4177C27.4238 48.7992 15.7816 51.1126 15.7816 51.1126L15.305 50.8404C7.40733 46.962 7.135 29.8157 21.5686 24.3043C27.9003 21.8548 33.8916 23.2157 40.768 21.5827C48.0529 19.8816 56.4952 14.4383 59.8994 7.29401C63.712 18.793 68.3417 36.6198 60.0356 47.6425Z" fill="#6DB33F"/>
<path d="M15.373 57.5085C14.4198 58.7332 12.6496 58.8693 11.4241 57.9167C10.1987 56.9641 10.0625 55.1951 11.0156 53.9703C11.9688 52.7456 13.739 52.6095 14.9645 53.5621C16.1219 54.5147 16.3261 56.2837 15.373 57.5085Z" fill="#6B6B6B"/>
</g>
<defs>
<clipPath id="clip0_260_379">
<rect width="257" height="66" fill="white"/>
</clipPath>
</defs>
</svg>
