<svg width="307" height="60" viewBox="0 0 307 60" fill="none" xmlns="http://www.w3.org/2000/svg">
<g clip-path="url(#clip0_260_514)">
<path d="M39.4789 27.5666H31.3172V18.6956H28.1071V27.5666H19.9453V30.7162H28.1071V39.5832H31.3172V30.7162H39.4789V27.5666Z" fill="white"/>
<path d="M23.0682 42.0443H15.7535V34.1031H12.9868V42.0443H5.67603V44.4658H12.9868V52.407H15.7535V44.4658H23.0682V42.0443Z" fill="white"/>
<path d="M53.7482 13.6389H46.4374V5.66211H43.6667V13.6389H36.356V16.0604H43.6667V23.962H46.4374V16.0604H53.7482V13.6389Z" fill="white"/>
<path d="M35.9007 50.856H30.9411V45.3165H28.5781V50.856H23.6145V52.9926H28.5781V58.532H30.9411V52.9926H35.9007V50.856Z" fill="white"/>
<path d="M23.0682 13.6389H15.6704V5.66211H13.0739V13.6389H5.67603V15.9892H13.0739V23.962H15.6704V15.9892H23.0682V13.6389Z" fill="white"/>
<path d="M59.3648 28.0731H54.4052V22.5336H52.0422V28.0731H47.0786V30.2097H52.0422V35.7491H54.4052V30.2097H59.3648V28.0731Z" fill="white"/>
<path fill-rule="evenodd" clip-rule="evenodd" d="M53.7482 42.0443H46.4374V34.1031H43.6667V42.0443H36.356V44.4658H43.6667V52.407H46.4374V44.4658H53.7482V42.0443Z" fill="white"/>
<path d="M28.8749 0V5.4326H23.9668V7.07861H28.8749V12.5112H30.6403V7.07861H35.5484V5.4326H30.6403V0H28.8749Z" fill="white"/>
<path d="M11.5856 28.2828H6.65765V22.957H4.92793V28.2828H0V29.9961L4.92793 29.9684V35.3258H6.65765V29.9565L11.5856 29.9288V28.2828Z" fill="white"/>
<path fill-rule="evenodd" clip-rule="evenodd" d="M86.0903 59.4619C86.6919 59.8219 87.3411 60 88.0377 60C89.4508 60 90.2543 59.3511 90.2543 58.3342C90.2543 57.713 90.0089 57.2382 89.5141 56.9335C89.0985 56.6763 88.6196 56.522 88.1208 56.3361C87.6102 56.1461 87.3648 55.9404 87.3648 55.7109C87.3648 55.426 87.6459 55.2598 88.1881 55.2598C88.7304 55.2598 89.3043 55.4616 90.0208 55.8177V54.6663C89.3795 54.3537 88.7304 54.2073 88.1169 54.2073C86.8265 54.2073 85.9993 54.8879 85.9993 55.8217C85.9993 56.8386 86.688 57.3094 88.1011 57.804C88.5919 57.9742 88.8492 58.081 88.8492 58.4173C88.8492 58.7536 88.5602 58.9159 88.01 58.9159C87.3767 58.9159 86.8028 58.6468 86.0982 58.2116V59.4619H86.0903Z" fill="white"/>
<path fill-rule="evenodd" clip-rule="evenodd" d="M113.643 57.1037C113.643 57.9306 113.948 58.6547 114.522 59.1968C115.088 59.7309 115.804 60 116.687 60C117.57 60 118.298 59.7309 118.864 59.1968C119.438 58.6547 119.743 57.9385 119.743 57.1037C119.743 56.2688 119.438 55.5566 118.864 55.0026C118.298 54.4685 117.574 54.2073 116.687 54.2073C115.8 54.2073 115.088 54.4685 114.522 55.0026C113.948 55.5566 113.643 56.2688 113.643 57.1037ZM115.088 57.1037C115.088 56.0947 115.761 55.3825 116.687 55.3825C117.613 55.3825 118.29 56.0947 118.29 57.1037C118.29 58.1126 117.617 58.8169 116.687 58.8169C115.757 58.8169 115.088 58.1126 115.088 57.1037Z" fill="white"/>
<path fill-rule="evenodd" clip-rule="evenodd" d="M144.636 59.9011H146.041V57.5943H148.127V56.5458H146.041V55.3271H148.269V54.2944H144.636V59.9011Z" fill="white"/>
<path fill-rule="evenodd" clip-rule="evenodd" d="M174.476 59.9011H175.953V55.339H177.809V54.2944H172.62V55.339H174.476V59.9011Z" fill="white"/>
<path fill-rule="evenodd" clip-rule="evenodd" d="M202.718 59.9525H203.288L204.562 56.4468L205.829 59.9525H206.411L208.687 54.2944H207.214L206.134 57.3608L205.033 54.2944H204.095L202.995 57.3411L201.906 54.2944H200.442L202.718 59.9525Z" fill="white"/>
<path fill-rule="evenodd" clip-rule="evenodd" d="M229.891 59.9011H231.387L231.838 58.809H234.253L234.657 59.9011H236.145L233.956 54.2944H232.337L229.891 59.9011ZM232.242 57.8515L233.113 55.7148L233.901 57.8515H232.242Z" fill="white"/>
<path fill-rule="evenodd" clip-rule="evenodd" d="M258.912 59.9011H260.317V57.618C260.373 57.618 260.42 57.6101 260.48 57.6101C261.03 57.6101 261.275 57.7842 261.497 58.2828L262.213 59.9011H263.797L262.902 57.9781C262.736 57.618 262.514 57.3806 262.237 57.2738C262.914 56.9691 263.215 56.5339 263.215 55.9206C263.215 54.7969 262.482 54.2944 260.978 54.2944H258.912V59.9011ZM260.99 56.5932H260.317V55.2915H260.99C261.497 55.2915 261.762 55.5289 261.762 55.9404C261.762 56.3835 261.513 56.5932 260.99 56.5932Z" fill="white"/>
<path fill-rule="evenodd" clip-rule="evenodd" d="M287.074 59.9011H290.894V58.8525H288.48V57.5152H290.724V56.4706H288.48V55.3271H290.827V54.2944H287.074V59.9011Z" fill="white"/>
<path fill-rule="evenodd" clip-rule="evenodd" d="M157.935 24.5753C159.871 23.8156 161.585 23.59 162.685 23.59C168.167 23.59 171.872 27.44 171.872 33.4819C171.872 39.5238 167.981 43.4054 161.118 43.4054C158.739 43.4054 156.403 42.9464 153.949 42.1155L153.834 14.4144H157.939V24.5753H157.935ZM161.525 39.6307C165.361 39.6307 167.557 37.4347 167.557 33.5215C167.557 29.6082 165.345 27.3648 161.897 27.3648C160.397 27.3648 158.976 27.8831 157.931 28.3579V38.9343C159.198 39.3972 160.381 39.6267 161.525 39.6267" fill="white"/>
<path d="M192.993 10.5249H188.932V46.8834H192.993V10.5249Z" fill="white"/>
<path fill-rule="evenodd" clip-rule="evenodd" d="M215.424 31.3255H224.749C224.646 28.8446 223.308 27.5547 220.933 27.4043C218.543 27.25 216.223 28.7892 215.42 31.3255M220.023 43.4806C213.765 42.8752 210.717 38.4753 210.896 33.2643C211.086 27.6338 214.731 23.6375 220.288 23.6375C226.119 23.6375 229.495 27.9504 229.206 34.3128H215.17C215.507 37.8343 217.62 39.504 220.514 39.7256C222.92 39.9116 226.325 39.3656 228.165 38.2102V42.0838C225.739 43.2629 223.213 43.7852 220.023 43.4766" fill="white"/>
<path fill-rule="evenodd" clip-rule="evenodd" d="M289.43 40.2835C292.006 40.2835 293.744 38.9699 293.744 36.034V24.0055H297.849V36.5404C297.849 40.7306 294.595 43.2867 289.426 43.2867C284.256 43.2867 281.007 40.7306 281.007 36.5404V24.0055H285.111V36.034C285.111 38.9738 286.857 40.2835 289.43 40.2835Z" fill="white"/>
<path fill-rule="evenodd" clip-rule="evenodd" d="M126.8 43.4054C119.937 43.4252 116.046 39.7454 116.046 33.4819C116.046 27.2184 119.751 23.59 125.233 23.59C127.085 23.59 128.613 23.9976 129.982 24.8878V23.503H134.087L133.972 42.1155C132.246 42.8673 129.408 43.3975 126.808 43.4054M126.388 39.6307C127.322 39.6188 128.458 39.5476 129.903 39.1835L129.978 28.6903C128.664 27.7881 127.394 27.3648 126.016 27.3648C122.569 27.3648 120.356 29.6755 120.356 33.5215C120.356 37.3674 122.553 39.6861 126.388 39.6307Z" fill="white"/>
<path fill-rule="evenodd" clip-rule="evenodd" d="M256.474 43.4054C249.61 43.4252 245.719 39.7454 245.719 33.4819C245.719 27.2184 249.424 23.59 254.902 23.59C256.751 23.59 258.279 23.9976 259.652 24.8878V23.503H263.757L263.638 42.1155C261.916 42.8673 259.078 43.3975 256.474 43.4054ZM256.066 39.6307C256.874 39.6307 258.132 39.5476 259.581 39.1835L259.656 28.6903C258.342 27.7881 257.072 27.3648 255.694 27.3648C252.243 27.3648 250.034 29.6755 250.034 33.5215C250.034 37.3674 252.231 39.6386 256.066 39.6307Z" fill="white"/>
<path d="M85.5046 15.7241H89.5696V27.258H100.546V31.0446H89.5696V43.5478H85.5046V31.0446H74.5286V27.258H85.5046V15.7241Z" fill="white"/>
<path d="M304.606 23.8433C305.935 23.8433 307 24.9235 307 26.2767C307 27.6299 305.939 28.7219 304.598 28.7219C303.256 28.7219 302.183 27.6536 302.183 26.2767C302.183 24.8997 303.264 23.8433 304.598 23.8433H304.606ZM304.598 24.2192C303.525 24.2192 302.646 25.1371 302.646 26.2727C302.646 27.4083 303.525 28.3381 304.606 28.3381C305.69 28.35 306.553 27.4281 306.553 26.2806C306.553 25.1332 305.69 24.2152 304.606 24.2152H304.598V24.2192ZM304.142 27.6932H303.711V24.9788C303.941 24.9472 304.154 24.9116 304.479 24.9116C304.894 24.9116 305.16 24.9986 305.326 25.1173C305.488 25.236 305.575 25.422 305.575 25.6792C305.575 26.0353 305.338 26.2529 305.045 26.34V26.3597C305.278 26.4033 305.445 26.6209 305.496 27.0205C305.563 27.4399 305.627 27.6061 305.666 27.6892H305.215C305.148 27.6022 305.084 27.3529 305.033 26.9968C304.966 26.6486 304.792 26.518 304.447 26.518H304.142V27.6853V27.6932ZM304.142 26.1896H304.459C304.815 26.1896 305.116 26.059 305.116 25.7227C305.116 25.4853 304.946 25.2479 304.459 25.2479C304.321 25.2479 304.222 25.2558 304.142 25.2677V26.1857V26.1896Z" fill="white"/>
</g>
<defs>
<clipPath id="clip0_260_514">
<rect width="307" height="60" fill="white"/>
</clipPath>
</defs>
</svg>
